<svg width="539" height="530" viewBox="0 0 539 530" fill="none" xmlns="http://www.w3.org/2000/svg">
<path d="M374.589 228.993C353.378 272.005 322.929 316.817 289.325 354.477C255.721 392.137 221.435 419.873 193.318 432.142C165.201 444.412 145.322 440.312 137.653 420.662C129.984 401.012 135.089 367.259 151.949 326.145C168.809 285.032 196.181 239.585 228.599 198.885C261.017 158.184 296.092 125.227 326.818 106.596C357.544 87.965 381.658 85.0329 394.343 98.3852C407.028 111.738 407.35 140.391 395.245 178.622L393.411 179.872C405.341 142.197 405.023 113.96 392.523 100.802C380.022 87.644 356.259 90.5335 325.979 108.893C295.7 127.253 261.135 159.732 229.188 199.841C197.242 239.949 170.267 284.735 153.653 325.251C137.038 365.766 132.007 399.029 139.565 418.393C147.122 437.757 166.712 441.797 194.421 429.706C222.129 417.615 255.916 390.283 289.032 353.171C322.147 316.058 352.153 271.897 373.055 229.511L374.589 228.993Z" fill="#81D9FF"/>
<circle cx="394.277" cy="178.856" r="2" transform="rotate(-12.4427 394.277 178.856)" fill="#81D9FF"/>
<path d="M165.3 304.703C209.12 324.191 261.191 339.151 311.113 346.596C361.034 354.04 405.128 353.421 434.588 344.862C464.047 336.303 476.703 320.434 470.025 300.426C463.348 280.417 437.829 257.742 398.568 236.93C359.307 216.119 309.193 198.703 258.239 188.163C207.285 177.622 159.242 174.733 123.707 180.072C88.1731 185.41 67.764 198.585 66.5573 216.962C65.3507 235.34 83.4354 257.568 117.198 279.206L119.408 278.993C86.1356 257.67 68.3139 235.766 69.503 217.655C70.6921 199.545 90.8044 186.562 125.822 181.301C160.84 176.039 208.184 178.887 258.398 189.274C308.611 199.661 357.996 216.824 396.686 237.333C435.376 257.842 460.524 280.187 467.104 299.905C473.684 319.622 461.213 335.261 432.182 343.695C403.151 352.13 359.697 352.74 310.502 345.404C261.307 338.067 209.993 323.324 166.81 304.12L165.3 304.703Z" fill="#81D9FF"/>
<circle cx="2" cy="2" r="2" transform="matrix(-0.888355 0.459157 0.459157 0.888355 118.95 276.071)" fill="#81D9FF"/>
<path d="M290.77 412.255C320.701 440.309 347.426 453.358 365.605 448.794C383.784 444.23 392.08 422.39 388.834 387.637C385.588 352.884 371.04 307.777 348.097 261.327C325.153 214.876 295.503 170.503 265.07 137.072C234.637 103.64 205.661 83.6125 183.932 80.9889C162.203 78.3654 149.32 93.3395 147.856 122.92C146.393 152.5 156.458 194.509 176.039 240.553C195.62 286.597 223.277 333.287 253.484 371.296L253.704 369.753C223.936 332.297 196.682 286.286 177.385 240.911C158.089 195.536 148.17 154.139 149.612 124.989C151.054 95.8384 163.75 81.082 185.163 83.6674C206.577 86.2528 235.131 105.99 265.122 138.935C295.112 171.88 324.331 215.608 346.941 261.383C369.551 307.158 383.887 351.609 387.086 385.857C390.284 420.105 382.11 441.627 364.195 446.124C346.28 450.622 319.944 437.763 290.448 410.117L290.77 412.255Z" fill="#81D9FF"/>
<circle cx="253.476" cy="370.025" r="2" transform="rotate(-8.12322 253.476 370.025)" fill="#81D9FF"/>
<rect x="373.666" y="231.882" width="1.95516" height="3.4294" rx="0.97758" transform="rotate(-153.823 373.666 231.882)" fill="#81D9FF"/>
<rect x="375.683" y="227.779" width="1.95516" height="3.4294" rx="0.97758" transform="rotate(-153.823 375.683 227.779)" fill="#81D9FF"/>
<rect x="377.7" y="223.675" width="1.95516" height="3.4294" rx="0.97758" transform="rotate(-153.823 377.7 223.675)" fill="#81D9FF"/>
<path d="M380.958 212.582C381.604 211.595 383.126 212.344 382.739 213.457L380.668 219.425C380.471 219.993 379.821 220.26 379.282 219.995L377.893 219.312C377.354 219.047 377.168 218.369 377.498 217.867L380.958 212.582Z" fill="#81D9FF"/>
<rect x="292.982" y="412.184" width="1.95516" height="3.4294" rx="0.97758" transform="rotate(138.938 292.982 412.184)" fill="#81D9FF"/>
<rect x="289.979" y="408.736" width="1.95516" height="3.4294" rx="0.97758" transform="rotate(138.938 289.979 408.736)" fill="#81D9FF"/>
<rect x="286.975" y="405.289" width="1.95516" height="3.4294" rx="0.97758" transform="rotate(138.938 286.975 405.289)" fill="#81D9FF"/>
<path d="M278.006 397.993C277.346 397.016 278.625 395.901 279.503 396.689L284.204 400.908C284.651 401.309 284.646 402.011 284.193 402.406L283.026 403.422C282.573 403.817 281.877 403.726 281.541 403.228L278.006 397.993Z" fill="#81D9FF"/>
<rect x="167.132" y="303.799" width="1.95516" height="3.4294" rx="0.97758" transform="rotate(114.83 167.132 303.799)" fill="#81D9FF"/>
<rect x="162.982" y="301.878" width="1.95516" height="3.4294" rx="0.97758" transform="rotate(114.83 162.982 301.878)" fill="#81D9FF"/>
<rect x="158.832" y="299.958" width="1.95516" height="3.4294" rx="0.97758" transform="rotate(114.83 158.832 299.958)" fill="#81D9FF"/>
<path d="M147.665 296.962C146.664 296.34 147.376 294.8 148.499 295.161L154.513 297.091C155.086 297.275 155.368 297.918 155.115 298.463L154.466 299.868C154.213 300.413 153.54 300.614 153.03 300.297L147.665 296.962Z" fill="#81D9FF"/>
<path d="M258.814 264.833C258.814 263.308 259.163 261.804 259.834 260.434C260.505 259.064 261.48 257.867 262.685 256.932C263.89 255.997 265.293 255.35 266.786 255.041C268.28 254.732 269.824 254.768 271.301 255.148L270.814 257.047C269.626 256.742 268.385 256.712 267.184 256.961C265.983 257.21 264.856 257.73 263.887 258.481C262.918 259.232 262.134 260.196 261.595 261.297C261.055 262.398 260.775 263.607 260.775 264.833L258.814 264.833Z" fill="#D9D9D9"/>
<path d="M273.994 273.387C272.689 274.177 271.222 274.658 269.703 274.794C268.184 274.929 266.654 274.716 265.23 274.169C263.806 273.622 262.526 272.757 261.488 271.64C260.45 270.523 259.682 269.183 259.241 267.723L261.118 267.157C261.472 268.33 262.09 269.407 262.925 270.306C263.759 271.204 264.788 271.899 265.933 272.339C267.077 272.778 268.307 272.95 269.528 272.841C270.75 272.732 271.93 272.345 272.978 271.71L273.994 273.387Z" fill="#D9D9D9"/>
<path d="M273.836 256.186C275.155 256.952 276.281 258.009 277.129 259.277C277.976 260.545 278.522 261.99 278.725 263.501C278.928 265.013 278.783 266.551 278.301 267.997C277.818 269.444 277.011 270.761 275.941 271.848L274.544 270.473C275.404 269.599 276.053 268.54 276.441 267.377C276.829 266.214 276.945 264.978 276.782 263.763C276.619 262.547 276.18 261.386 275.498 260.366C274.817 259.347 273.912 258.497 272.852 257.881L273.836 256.186Z" fill="#D9D9D9"/>
<circle cx="268.814" cy="264.833" r="6" fill="#FF7C03"/>
<rect x="241.361" y="241.997" width="8" height="3" rx="1.5" transform="rotate(-44.8241 241.361 241.997)" fill="#D9D9D9"/>
<rect x="244.18" y="244.835" width="8" height="3" rx="1.5" transform="rotate(-44.8241 244.18 244.835)" fill="#D9D9D9"/>
<rect x="247" y="247.672" width="8" height="3" rx="1.5" transform="rotate(-44.8241 247 247.672)" fill="#D9D9D9"/>
<path d="M261.378 255.235C261.575 255.979 260.892 256.658 260.149 256.456L248.448 253.282C247.705 253.081 247.459 252.151 248.005 251.608L256.604 243.061C257.15 242.518 258.079 242.77 258.276 243.514L261.378 255.235Z" fill="#D9D9D9"/>
<rect x="304.145" y="257.816" width="8" height="3" rx="1.5" transform="rotate(85.2055 304.145 257.816)" fill="#D9D9D9"/>
<rect x="300.159" y="258.15" width="8" height="3" rx="1.5" transform="rotate(85.2055 300.159 258.15)" fill="#D9D9D9"/>
<rect x="296.173" y="258.485" width="8" height="3" rx="1.5" transform="rotate(85.2055 296.173 258.485)" fill="#D9D9D9"/>
<path d="M281.134 264.629C280.437 264.301 280.357 263.342 280.989 262.903L290.945 255.984C291.578 255.545 292.448 255.955 292.513 256.722L293.526 268.804C293.59 269.571 292.8 270.12 292.104 269.792L281.134 264.629Z" fill="#D9D9D9"/>
<rect x="259.495" y="299.085" width="8" height="3" rx="1.5" transform="rotate(-158.707 259.495 299.085)" fill="#D9D9D9"/>
<rect x="260.948" y="295.358" width="8" height="3" rx="1.5" transform="rotate(-158.707 260.948 295.358)" fill="#D9D9D9"/>
<rect x="262.4" y="291.631" width="8" height="3" rx="1.5" transform="rotate(-158.707 262.4 291.631)" fill="#D9D9D9"/>
<path d="M263.495 275.423C264.096 274.941 264.992 275.291 265.109 276.051L266.944 288.036C267.061 288.797 266.31 289.399 265.593 289.119L254.296 284.716C253.579 284.437 253.433 283.486 254.034 283.004L263.495 275.423Z" fill="#D9D9D9"/>
</svg>
